# xmcd
#
# Track frame offsets:
#	150
#	34074
#	66146
#	91264
#	134190
#	168557
#	210631
#	243417
#	274805
#	302816
#
# Disc length: 4504 seconds
# Revision: 0
# Processed by: cddbd v1.5.2PL0 Copyright (c) Steve Scherf et al.
# Submitted via: dBpowerAMP V12.0
#
DISCID=9311960a
DTITLE=Hilary Mantel - Wölfe CD8
DYEAR=1900
DGENRE=
TTITLE0=073
TTITLE1=074
TTITLE2=075
TTITLE3=076
TTITLE4=077
TTITLE5=078
TTITLE6=079
TTITLE7=080
TTITLE8=081
TTITLE9=082
EXTD=
EXTT0=
EXTT1=
EXTT2=
EXTT3=
EXTT4=
EXTT5=
EXTT6=
EXTT7=
EXTT8=
EXTT9=
PLAYORDER=
